<?xml version="1.0" encoding="UTF-8"?>
<svg version="1.1" xmlns="http://www.w3.org/2000/svg" width="512" height="512">
<path d="M0 0 C0.97088562 0.00215515 1.94177124 0.0043103 2.94207764 0.00653076 C17.27751026 0.05757173 31.28525803 0.44028152 45.375 3.3125 C46.40109375 3.51649414 47.4271875 3.72048828 48.484375 3.93066406 C86.28330967 11.62256813 121.28129601 26.30484892 152.375 49.3125 C153.26058594 49.96484619 153.26058594 49.96484619 154.1640625 50.63037109 C163.86850769 57.84725062 172.68066441 65.92127895 181.375 74.3125 C182.31601562 75.21226563 183.25703125 76.11203125 184.2265625 77.0390625 C190.10004639 82.76707311 195.31043947 88.86432242 200.375 95.3125 C201.16648437 96.29863281 201.95796875 97.28476563 202.7734375 98.30078125 C229.03253868 131.5595482 245.06577165 169.945464 253.375 211.3125 C253.64836182 212.64933838 253.64836182 212.64933838 253.92724609 214.01318359 C259.25144966 241.46064496 258.95447404 273.94224589 253.375 301.3125 C253.17100586 302.33859375 252.96701172 303.3646875 252.75683594 304.421875 C246.1888581 336.69770206 234.90655862 368.58712758 215.98046875 395.8203125 C214.12939883 398.16102621 214.12939883 398.16102621 214.5 400.75 C214.933125 402.0184375 214.933125 402.0184375 215.375 403.3125 C215.725625 404.570625 216.07625 405.82875 216.4375 407.125 C216.9015625 408.7028125 216.9015625 408.7028125 217.375 410.3125 C215.68795579 411.08433035 214.00033901 411.85490925 212.3125 412.625 C211.30316406 413.09292969 210.29382813 413.56085938 209.25390625 414.04296875 C206.375 415.3125 206.375 415.3125 202.75 416.4375 C198.41976497 418.84318613 196.29938808 421.92576682 193.28515625 425.80859375 C184.14129405 437.17239179 172.95787739 447.48250379 161.375 456.3125 C160.39917969 457.09367187 159.42335938 457.87484375 158.41796875 458.6796875 C125.3074618 485.05217006 86.66101662 501.01954568 45.375 509.3125 C44.03816162 509.58586182 44.03816162 509.58586182 42.67431641 509.86474609 C15.22685504 515.18894966 -17.25474589 514.89197404 -44.625 509.3125 C-46.16414063 509.00650879 -46.16414063 509.00650879 -47.734375 508.69433594 C-85.53330967 501.00243187 -120.53129601 486.32015108 -151.625 463.3125 C-152.21539062 462.87760254 -152.80578125 462.44270508 -153.4140625 461.99462891 C-163.11850769 454.77774938 -171.93066441 446.70372105 -180.625 438.3125 C-181.56601563 437.41273438 -182.50703125 436.51296875 -183.4765625 435.5859375 C-189.35004639 429.85792689 -194.56043947 423.76067758 -199.625 417.3125 C-200.41648438 416.32636719 -201.20796875 415.34023438 -202.0234375 414.32421875 C-219.999715 391.5561575 -246.625 354.22985249 -246.625 324.3125 C-247.615 324.3125 -248.605 324.3125 -249.625 324.3125 C-249.625 321.6725 -249.625 319.0325 -249.625 316.3125 C-251.605 316.3125 -253.585 316.3125 -255.625 316.3125 C-255.625 229.8525 -255.625 143.3925 -255.625 54.3125 C-206.62 53.8175 -206.62 53.8175 -156.625 53.3125 C-152.335 50.0125 -148.045 46.7125 -143.625 43.3125 C-139.35787629 40.4997926 -134.96661911 37.94661524 -130.53125 35.41259766 C-128.68185314 34.34530997 -126.85585901 33.24572646 -125.03125 32.13671875 C-87.43073965 9.65553988 -43.46432977 -0.17389824 0 0 Z " fill="#5DDCD2" transform="translate(255.625,-0.3125)"/>
<path d="M0 0 C6.93 0 13.86 0 21 0 C21 12.21 21 24.42 21 37 C23.78050781 35.83339844 26.56101562 34.66679688 29.42578125 33.46484375 C32.1155089 32.34397848 34.80657908 31.22639859 37.49780273 30.10913086 C39.37032802 29.32968348 41.24143413 28.54681768 43.11108398 27.76049805 C45.79567319 26.63213053 48.48509306 25.51607529 51.17578125 24.40234375 C52.01337479 24.047202 52.85096832 23.69206024 53.71394348 23.32615662 C54.49452621 23.00574905 55.27510895 22.68534149 56.0793457 22.35522461 C56.76551468 22.06876572 57.45168365 21.78230682 58.15864563 21.48716736 C60 21 60 21 63 22 C64.07052612 23.87904358 64.07052612 23.87904358 65.06201172 26.37915039 C65.44067886 27.31790512 65.81934601 28.25665985 66.20948792 29.22386169 C66.61215378 30.2547139 67.01481964 31.2855661 67.4296875 32.34765625 C68.07060585 33.94898155 68.07060585 33.94898155 68.72447205 35.58265686 C70.11839596 39.07188922 71.49675184 42.5670496 72.875 46.0625 C73.8227102 48.44363537 74.7715239 50.82433184 75.72143555 53.20458984 C77.60909605 57.93662625 79.49185573 62.6705686 81.37158203 67.40576172 C83.64311704 73.1177577 85.94669383 78.81580066 88.27734375 84.50390625 C88.58806824 85.26282669 88.89879272 86.02174713 89.21893311 86.80366516 C90.35790962 89.58320548 91.49811703 92.36222321 92.64276123 95.13943481 C93.39635583 96.96932623 94.14558792 98.80101249 94.89453125 100.6328125 C95.30550049 101.63199707 95.71646973 102.63118164 96.13989258 103.66064453 C97 106 97 106 97 108 C97.72445312 107.95359375 98.44890625 107.9071875 99.1953125 107.859375 C105.37504766 107.62866489 109.20940241 107.6656498 114 112 C119.68565804 117.93976566 121.37473745 122.18163024 121.27734375 130.30859375 C120.93166403 133.66314762 119.58022996 136.05502599 118 139 C118.87740696 142.07092436 120.66448581 143.87680529 123 146 C121.68 146.99 120.36 147.98 119 149 C116.03 147.02 116.03 147.02 113 145 C113.24008789 145.60021973 113.48017578 146.20043945 113.72753906 146.81884766 C114.46624124 148.66560311 115.20492773 150.51236485 115.94360352 152.35913086 C116.8346052 154.58655181 117.7257234 156.81392615 118.61694336 159.04125977 C120.99336247 164.98088357 123.36807273 170.92117614 125.73828125 176.86328125 C133.69012538 196.78820718 141.73691003 216.67425408 149.79443359 236.55664062 C153.01363197 244.50074853 156.22892838 252.4464354 159.44445801 260.39202881 C160.49889762 262.99727631 161.55360664 265.6024146 162.60839844 268.20751953 C165.86428988 276.24927885 169.11856848 284.29167872 172.36695862 292.33647156 C182.0034502 316.2347477 182.0034502 316.2347477 191.8125 340.0625 C192.19075928 340.97080566 192.56901855 341.87911133 192.95874023 342.81494141 C193.30880127 343.6507373 193.6588623 344.4865332 194.01953125 345.34765625 C194.3438916 346.12254395 194.66825195 346.89743164 195.00244141 347.69580078 C195.70145173 349.31040171 196.4303985 350.91221708 197.18115234 352.50341797 C197.74697021 353.70635498 197.74697021 353.70635498 198.32421875 354.93359375 C198.66928467 355.64443115 199.01435059 356.35526855 199.36987305 357.08764648 C200 359 200 359 199 362 C196.21875 363.39453125 196.21875 363.39453125 192.5 364.8125 C191.3140625 365.27269531 190.128125 365.73289062 188.90625 366.20703125 C185.35567695 367.52775852 181.78016544 368.77064103 178.20080566 370.01089478 C169.44719825 373.05604001 160.86572441 376.40912378 152.31210327 379.97433472 C148.11485611 381.72280452 143.91068626 383.45450545 139.70703125 385.1875 C138.33451958 385.75373329 138.33451958 385.75373329 136.9342804 386.33140564 C124.54608853 391.4342807 112.11490172 396.43108859 99.6875 401.4375 C97.21735305 402.43299064 94.74721958 403.4285147 92.27709961 404.42407227 C88.62572341 405.89567014 84.97432623 407.36721572 81.3228302 408.83851624 C68.88597127 413.8502811 56.45635718 418.87986677 44.02856445 423.9140625 C43.2043248 424.24793976 42.38008514 424.58181702 41.53086853 424.92581177 C39.87775214 425.59544522 38.22464539 426.26510245 36.57154846 426.93478394 C31.29279023 429.07279759 26.01263154 431.20731959 20.7315979 433.33970642 C17.02119499 434.83791563 13.31108944 436.33686011 9.60107422 437.83602905 C7.79988942 438.56379821 5.9986214 439.29136143 4.19726562 440.01870728 C-4.17409961 443.39986176 -12.54218755 446.78565186 -20.86328125 450.2890625 C-21.99685059 450.76609619 -23.13041992 451.24312988 -24.29833984 451.73461914 C-26.31527552 452.58779329 -28.33011878 453.44594046 -30.34228516 454.31030273 C-31.19741699 454.67325439 -32.05254883 455.03620605 -32.93359375 455.41015625 C-33.65603271 455.72090088 -34.37847168 456.03164551 -35.12280273 456.35180664 C-37 457 -37 457 -40 457 C-51.66554917 428.44127528 -63.28486834 399.86465716 -74.8125 371.25 C-75.07570415 370.59668449 -75.33890831 369.94336899 -75.61008835 369.27025604 C-77.70025806 364.08206746 -79.79031883 358.89383498 -81.88014793 353.70550919 C-86.7430436 341.63279897 -91.61724475 329.56469094 -96.5 317.5 C-96.8441394 316.64917847 -97.18827881 315.79835693 -97.54284668 314.92175293 C-100.68736373 307.14802864 -103.83763148 299.37709493 -107.03515625 291.625 C-107.47214844 290.56474609 -107.90914062 289.50449219 -108.359375 288.41210938 C-109.12546642 286.5578199 -109.8946616 284.70480749 -110.66796875 282.85351562 C-113 277.21777344 -113 277.21777344 -113 275 C-91.22 275 -69.44 275 -47 275 C-47 205.7 -47 136.4 -47 65 C-32.05666978 58.10307836 -32.05666978 58.10307836 -25.51171875 55.5703125 C-24.87609009 55.32079834 -24.24046143 55.07128418 -23.58557129 54.81420898 C-21.28788257 53.91353815 -18.9875541 53.01961306 -16.6875 52.125 C-11.510625 50.10375 -6.33375 48.0825 -1 46 C-0.67 30.82 -0.34 15.64 0 0 Z " fill="#FEFEFE" transform="translate(273,49)"/>
<path d="M0 0 C72.27 0 144.54 0 219 0 C219 86.46 219 172.92 219 262 C146.73 262 74.46 262 0 262 C0 175.54 0 89.08 0 0 Z " fill="#676767" transform="translate(0,54)"/>
<path d="M0 0 C62.37 0 124.74 0 189 0 C189 13.86 189 27.72 189 42 C126.63 42 64.26 42 0 42 C0 28.14 0 14.28 0 0 Z " fill="#C7C9CB" transform="translate(15,68)"/>
<path d="M0 0 C6.93 0 13.86 0 21 0 C21.13940291 28.62648758 21.24622676 57.25289227 21.31087303 85.87965202 C21.3416987 99.17413287 21.38366127 112.46834318 21.45263672 125.76269531 C21.51278641 137.36158187 21.55123099 148.96031192 21.56453097 160.55935013 C21.5722949 166.69054 21.59030178 172.82128249 21.63438034 178.95232773 C21.96392522 226.62783744 21.96392522 226.62783744 15.74528885 246.4091835 C14.35616567 251.2381344 13.51780173 256.18458402 12.625 261.125 C12.45842203 262.02446917 12.29184406 262.92393833 12.12021828 263.85066414 C11.74178477 265.89952055 11.37002812 267.94960889 11 270 C8.89662706 266.84494059 8.48221039 265.04674509 7.8515625 261.36328125 C7.65046875 260.22697266 7.449375 259.09066406 7.2421875 257.91992188 C7.03851563 256.72947266 6.83484375 255.53902344 6.625 254.3125 C5.3781229 247.05682371 4.01044791 240.00809389 1.94000244 232.93847656 C-0.80033368 222.58657004 -0.53107332 212.25715329 -0.45410156 201.62109375 C-0.45297092 199.41186544 -0.45361117 197.20263564 -0.45587158 194.9934082 C-0.45701118 189.04399774 -0.43362474 183.09491511 -0.40557575 177.14558029 C-0.3804355 170.91030322 -0.37821019 164.67501721 -0.37347412 158.43969727 C-0.36178413 147.32215593 -0.332957 136.20474909 -0.29490325 125.08726895 C-0.26055911 114.9995929 -0.23562629 104.91194083 -0.21972656 94.82421875 C-0.21867567 94.15933532 -0.21762477 93.49445188 -0.21654204 92.80942047 C-0.21132123 89.47331885 -0.20627561 86.13721702 -0.20129442 82.80111504 C-0.15957379 55.20065772 -0.08848065 27.60034362 0 0 Z " fill="#FB5E64" transform="translate(273,49)"/>
<path d="M0 0 C0 69.3 0 138.6 0 210 C-21.78 210 -43.56 210 -66 210 C-69 204 -69 204 -69 202 C-48.54 202 -28.08 202 -7 202 C-7 136.33 -7 70.66 -7 3 C-1 0 -1 0 0 0 Z " fill="#C6CACC" transform="translate(226,114)"/>
<path d="M0 0 C1.2375 0.7425 1.2375 0.7425 2.5 1.5 C0.625 6.25 0.625 6.25 -0.5 8.5 C-1.180625 8.335 -1.86125 8.17 -2.5625 8 C-5.98119943 7.41809371 -9.03820789 7.24357095 -12.5 7.5 C-14.44369738 8.85429841 -14.44369738 8.85429841 -15.5 10.5 C-14.95472656 10.72558594 -14.40945313 10.95117188 -13.84765625 11.18359375 C-9.69595809 13.51158423 -6.49947635 17.0310244 -3.05859375 20.28515625 C-0.63658478 22.66659084 -0.63658478 22.66659084 2.5 23.5 C4.42548639 22.49942587 4.42548639 22.49942587 6.4375 21.0625 C12.02427579 17.79441874 17.16486167 17.53162886 23.5 18.5 C29.37115418 21.2754547 34.02656367 26.45382229 36.5 32.5 C37.2635208 39.06429574 36.63188774 43.66330012 33.5 49.5 C34.37740696 52.57092436 36.16448581 54.37680529 38.5 56.5 C37.18 57.49 35.86 58.48 34.5 59.5 C32.52 58.18 30.54 56.86 28.5 55.5 C27.95730469 55.84933594 27.41460937 56.19867188 26.85546875 56.55859375 C26.14003906 57.01363281 25.42460937 57.46867187 24.6875 57.9375 C23.62595703 58.61619141 23.62595703 58.61619141 22.54296875 59.30859375 C18.46753721 61.68527945 15.14631957 61.87470319 10.5 61.5 C7.39279235 60.36875906 4.44665588 58.9967141 1.5 57.5 C2.04723683 54.12537285 2.5549 52.41765 4.5 49.5 C5.675625 49.995 5.675625 49.995 6.875 50.5 C11.4160386 51.7527003 15.81148743 52.07341521 20.5 51.5 C21.16 50.84 21.82 50.18 22.5 49.5 C19.78437169 47.01147939 17.06368085 44.5290786 14.328125 42.0625 C12.7386098 40.62227628 11.15773595 39.1718791 9.609375 37.6875 C7.3971252 35.63825808 6.14599133 34.5 3.0625 34.5 C0.36049035 35.51329715 0.36049035 35.51329715 -2.6875 37.0625 C-8.57158 39.65200797 -14.30383233 39.30526148 -20.25 37.125 C-25.2351209 33.78579788 -28.560799 28.12934101 -30.046875 22.38671875 C-30.46412448 16.60317731 -27.51904154 12.1579498 -24.5 7.5 C-25.49 7.17 -26.48 6.84 -27.5 6.5 C-26.84 5.18 -26.18 3.86 -25.5 2.5 C-24.79875 2.7475 -24.0975 2.995 -23.375 3.25 C-19.3419048 3.60070393 -17.68114541 1.85128139 -14.5 -0.5 C-9.24461396 -2.25179535 -5.01111219 -2.14761951 0 0 Z " fill="#F9B62F" transform="translate(357.5,138.5)"/>
<path d="M0 0 C2.31 0 4.62 0 7 0 C7 71.94 7 143.88 7 218 C4.69 218 2.38 218 0 218 C0 146.06 0 74.12 0 0 Z " fill="#EC4B53" transform="translate(287,50)"/>
<path d="M0 0 C1.98 0 3.96 0 6 0 C6 71.94 6 143.88 6 218 C4.02 218 2.04 218 0 218 C0 146.06 0 74.12 0 0 Z " fill="#EC4B53" transform="translate(273,50)"/>
<path d="M0 0 C1.78567383 -0.0009668 1.78567383 -0.0009668 3.60742188 -0.00195312 C5.47430664 0.02801758 5.47430664 0.02801758 7.37890625 0.05859375 C8.61962891 0.05150391 9.86035156 0.04441406 11.13867188 0.03710938 C20.13027106 0.10032776 20.13027106 0.10032776 23.29516602 1.64453125 C25.62936619 4.26985739 25.45825385 6.07522079 25.47265625 9.5546875 C25.48039062 11.34036133 25.48039062 11.34036133 25.48828125 13.16210938 C25.4728125 14.40669922 25.45734375 15.65128906 25.44140625 16.93359375 C25.456875 18.17431641 25.47234375 19.41503906 25.48828125 20.69335938 C25.483125 21.88509766 25.47796875 23.07683594 25.47265625 24.3046875 C25.46814453 25.39579834 25.46363281 26.48690918 25.45898438 27.61108398 C24.81090182 31.22353282 23.92924883 32.3921858 20.94140625 34.49609375 C18.1640625 35.01367188 18.1640625 35.01367188 15.00390625 35.02734375 C13.29074219 35.03507812 13.29074219 35.03507812 11.54296875 35.04296875 C10.35445312 35.0275 9.1659375 35.01203125 7.94140625 34.99609375 C6.75289062 35.0115625 5.564375 35.02703125 4.33984375 35.04296875 C3.19773437 35.0378125 2.055625 35.03265625 0.87890625 35.02734375 C-0.16394531 35.02283203 -1.20679687 35.01832031 -2.28125 35.01367188 C-5.81900269 34.35438604 -6.98418585 33.41777783 -9.05859375 30.49609375 C-9.56030273 27.71875 -9.56030273 27.71875 -9.5546875 24.55859375 C-9.55533203 23.41648438 -9.55597656 22.274375 -9.55664062 21.09765625 C-9.53666016 19.90914062 -9.51667969 18.720625 -9.49609375 17.49609375 C-9.50318359 16.30757812 -9.51027344 15.1190625 -9.51757812 13.89453125 C-9.45454696 5.30289892 -9.45454696 5.30289892 -7.91015625 2.15600586 C-5.28341304 -0.19885004 -3.49248554 -0.00593741 0 0 Z " fill="#FBFBFB" transform="translate(73.05859375,224.50390625)"/>
<path d="M0 0 C1.24072266 -0.01998047 2.48144531 -0.03996094 3.75976562 -0.06054688 C5.54737305 -0.05958008 5.54737305 -0.05958008 7.37109375 -0.05859375 C8.46220459 -0.06044678 9.55331543 -0.0622998 10.67749023 -0.06420898 C14.29087256 0.56416545 15.45333773 1.45971196 17.5625 4.4375 C18.08007812 7.10717773 18.08007812 7.10717773 18.09375 10.12109375 C18.10148437 11.75981445 18.10148437 11.75981445 18.109375 13.43164062 C18.09390625 14.56794922 18.0784375 15.70425781 18.0625 16.875 C18.07796875 18.00744141 18.0934375 19.13988281 18.109375 20.30664062 C18.10421875 21.40041016 18.0990625 22.49417969 18.09375 23.62109375 C18.08923828 24.61681396 18.08472656 25.61253418 18.08007812 26.63842773 C17.40531825 30.28754188 16.2816945 31.92391621 13.5625 34.4375 C10.67749023 35.06860352 10.67749023 35.06860352 7.37109375 35.06640625 C6.17935547 35.06833984 4.98761719 35.07027344 3.75976562 35.07226562 C1.89868164 35.03649414 1.89868164 35.03649414 0 35 C-1.24458984 35.01095703 -2.48917969 35.02191406 -3.77148438 35.03320312 C-12.85051591 34.95946979 -12.85051591 34.95946979 -15.29125977 32.7890625 C-16.75150722 29.79330031 -16.82560982 27.57627839 -16.8359375 24.24609375 C-16.83980469 23.05435547 -16.84367187 21.86261719 -16.84765625 20.63476562 C-16.83605469 19.39404297 -16.82445313 18.15332031 -16.8125 16.875 C-16.82990234 15.00811523 -16.82990234 15.00811523 -16.84765625 13.10351562 C-16.84378906 11.91306641 -16.83992188 10.72261719 -16.8359375 9.49609375 C-16.83255371 8.40611084 -16.82916992 7.31612793 -16.82568359 6.19311523 C-16.4375 3.4375 -16.4375 3.4375 -15.29125977 1.5859375 C-10.97729248 -1.08664279 -4.90877021 -0.02796296 0 0 Z " fill="#FBFBFB" transform="translate(124.4375,224.5625)"/>
<path d="M0 0 C1.13244141 -0.01998047 2.26488281 -0.03996094 3.43164062 -0.06054688 C4.52541016 -0.05990234 5.61917969 -0.05925781 6.74609375 -0.05859375 C7.74181396 -0.06044678 8.73753418 -0.0622998 9.76342773 -0.06420898 C13.41294753 0.58993521 15.0451222 1.7300195 17.5625 4.4375 C18.19360352 7.21484375 18.19360352 7.21484375 18.19140625 10.375 C18.19333984 11.51710937 18.19527344 12.65921875 18.19726562 13.8359375 C18.17341797 15.02445313 18.14957031 16.21296875 18.125 17.4375 C18.13595703 18.62601563 18.14691406 19.81453125 18.15820312 21.0390625 C18.08492308 29.69587897 18.08492308 29.69587897 15.9140625 32.77758789 C12.88894085 34.9129494 11.05518863 34.93985043 7.37109375 34.93359375 C6.17935547 34.93423828 4.98761719 34.93488281 3.75976562 34.93554688 C1.89868164 34.90557617 1.89868164 34.90557617 0 34.875 C-1.86688477 34.88563477 -1.86688477 34.88563477 -3.77148438 34.89648438 C-12.79092009 34.83300161 -12.79092009 34.83300161 -15.2890625 33.30493164 C-18.02348721 28.858585 -16.90260635 22.48695195 -16.875 17.4375 C-16.89498047 16.14070312 -16.91496094 14.84390625 -16.93554688 13.5078125 C-16.93490234 12.26773438 -16.93425781 11.02765625 -16.93359375 9.75 C-16.93544678 8.61175781 -16.9372998 7.47351563 -16.93920898 6.30078125 C-16.4375 3.4375 -16.4375 3.4375 -14.76171875 1.57006836 C-10.15429378 -0.67508337 -5.02609764 -0.03135966 0 0 Z " fill="#FBFBFB" transform="translate(124.4375,181.5625)"/>
<path d="M0 0 C1.71316406 -0.00773438 1.71316406 -0.00773438 3.4609375 -0.015625 C4.64945313 -0.00015625 5.83796875 0.0153125 7.0625 0.03125 C8.25101563 0.01578125 9.43953125 0.0003125 10.6640625 -0.015625 C11.80617188 -0.01046875 12.94828125 -0.0053125 14.125 0 C15.16785156 0.00451172 16.21070313 0.00902344 17.28515625 0.01367188 C20.83061552 0.67439389 21.99001496 1.59634574 24.0625 4.53125 C24.58007812 7.41625977 24.58007812 7.41625977 24.59375 10.72265625 C24.60148437 12.51026367 24.60148437 12.51026367 24.609375 14.33398438 C24.59390625 15.57470703 24.5784375 16.81542969 24.5625 18.09375 C24.57796875 19.33833984 24.5934375 20.58292969 24.609375 21.86523438 C24.60421875 23.05568359 24.5990625 24.24613281 24.59375 25.47265625 C24.58923828 26.56263916 24.58472656 27.65262207 24.58007812 28.77563477 C24.0625 31.53125 24.0625 31.53125 22.41625977 33.3828125 C17.5212351 35.77117429 11.83650847 34.99924433 6.5 34.96875 C4.63311523 34.9987207 4.63311523 34.9987207 2.72851562 35.02929688 C1.53806641 35.02865234 0.34761719 35.02800781 -0.87890625 35.02734375 C-1.96888916 35.02919678 -3.05887207 35.0310498 -4.18188477 35.03295898 C-6.9375 34.53125 -6.9375 34.53125 -8.7890625 32.87133789 C-11.11882107 28.12415765 -10.40591398 22.71355667 -10.375 17.53125 C-10.39498047 16.34273437 -10.41496094 15.15421875 -10.43554688 13.9296875 C-10.43490234 12.78757813 -10.43425781 11.64546875 -10.43359375 10.46875 C-10.43544678 9.42589844 -10.4372998 8.38304687 -10.43920898 7.30859375 C-9.34303704 1.24044188 -5.69841947 0.02465324 0 0 Z " fill="#FBFBFB" transform="translate(73.9375,181.46875)"/>
<path d="M0 0 C1.24007812 -0.00386719 2.48015625 -0.00773437 3.7578125 -0.01171875 C5.70300781 0.00568359 5.70300781 0.00568359 7.6875 0.0234375 C8.98429687 0.01183594 10.28109375 0.00023437 11.6171875 -0.01171875 C12.85726562 -0.00785156 14.09734375 -0.00398438 15.375 0 C16.51324219 0.00338379 17.65148437 0.00676758 18.82421875 0.01025391 C21.6875 0.3984375 21.6875 0.3984375 23.55712891 1.54248047 C25.19340406 4.22908171 25.07627383 6.36115695 25.0859375 9.4921875 C25.09173828 11.28462891 25.09173828 11.28462891 25.09765625 13.11328125 C25.08605469 14.36238281 25.07445312 15.61148437 25.0625 16.8984375 C25.07410156 18.14753906 25.08570313 19.39664062 25.09765625 20.68359375 C25.09378906 21.87855469 25.08992188 23.07351563 25.0859375 24.3046875 C25.08255371 25.40103516 25.07916992 26.49738281 25.07568359 27.62695312 C24.6875 30.3984375 24.6875 30.3984375 23.55712891 32.25439453 C20.80936909 33.9357738 18.57881997 33.78735062 15.375 33.796875 C14.13492188 33.80074219 12.89484375 33.80460937 11.6171875 33.80859375 C9.67199219 33.79119141 9.67199219 33.79119141 7.6875 33.7734375 C6.39070313 33.78503906 5.09390625 33.79664063 3.7578125 33.80859375 C2.51773438 33.80472656 1.27765625 33.80085938 0 33.796875 C-1.13824219 33.79349121 -2.27648437 33.79010742 -3.44921875 33.78662109 C-6.3125 33.3984375 -6.3125 33.3984375 -8.18212891 32.25439453 C-9.81840406 29.56779329 -9.70127383 27.43571805 -9.7109375 24.3046875 C-9.71480469 23.10972656 -9.71867187 21.91476562 -9.72265625 20.68359375 C-9.71105469 19.43449219 -9.69945312 18.18539063 -9.6875 16.8984375 C-9.69910156 15.64933594 -9.71070313 14.40023438 -9.72265625 13.11328125 C-9.71878906 11.91832031 -9.71492188 10.72335937 -9.7109375 9.4921875 C-9.70755371 8.39583984 -9.70416992 7.29949219 -9.70068359 6.16992188 C-9.3125 3.3984375 -9.3125 3.3984375 -8.18212891 1.54248047 C-5.43436909 -0.1388988 -3.20381997 0.00952438 0 0 Z " fill="#FDFDFD" transform="translate(73.3125,267.6015625)"/>
<path d="M0 0 C1.24007812 -0.00386719 2.48015625 -0.00773437 3.7578125 -0.01171875 C5.70300781 0.00568359 5.70300781 0.00568359 7.6875 0.0234375 C8.98429687 0.01183594 10.28109375 0.00023437 11.6171875 -0.01171875 C12.85726562 -0.00785156 14.09734375 -0.00398438 15.375 0 C16.51324219 0.00338379 17.65148437 0.00676758 18.82421875 0.01025391 C21.6875 0.3984375 21.6875 0.3984375 23.55712891 1.55834961 C25.16278555 4.17213668 25.07607289 6.18283432 25.0859375 9.23828125 C25.09173828 10.9562793 25.09173828 10.9562793 25.09765625 12.70898438 C25.08605469 13.90587891 25.07445312 15.10277344 25.0625 16.3359375 C25.07410156 17.52896484 25.08570313 18.72199219 25.09765625 19.95117188 C25.09378906 21.09779297 25.08992188 22.24441406 25.0859375 23.42578125 C25.08255371 24.47499756 25.07916992 25.52421387 25.07568359 26.60522461 C24.62409263 29.85469144 24.14671829 31.21796058 21.6875 33.3984375 C18.82421875 33.90014648 18.82421875 33.90014648 15.375 33.89453125 C14.13492188 33.89517578 12.89484375 33.89582031 11.6171875 33.89648438 C10.32039063 33.87650391 9.02359375 33.85652344 7.6875 33.8359375 C6.39070313 33.84302734 5.09390625 33.85011719 3.7578125 33.85742188 C-5.6677302 33.79373578 -5.6677302 33.79373578 -8.18212891 32.25219727 C-9.81941309 29.56712194 -9.7012767 27.43478511 -9.7109375 24.3046875 C-9.71480469 23.10972656 -9.71867187 21.91476562 -9.72265625 20.68359375 C-9.71105469 19.43449219 -9.69945313 18.18539063 -9.6875 16.8984375 C-9.69910156 15.64933594 -9.71070312 14.40023438 -9.72265625 13.11328125 C-9.71878906 11.91832031 -9.71492188 10.72335937 -9.7109375 9.4921875 C-9.70755371 8.39583984 -9.70416992 7.29949219 -9.70068359 6.16992188 C-9.3125 3.3984375 -9.3125 3.3984375 -8.18212891 1.54248047 C-5.43436909 -0.1388988 -3.20381997 0.00952438 0 0 Z " fill="#FDFDFD" transform="translate(117.3125,267.6015625)"/>
<path d="M0 0 C1.19496094 -0.00386719 2.38992187 -0.00773438 3.62109375 -0.01171875 C4.87019531 -0.00011719 6.11929688 0.01148438 7.40625 0.0234375 C8.65535156 0.01183594 9.90445313 0.00023437 11.19140625 -0.01171875 C12.98384766 -0.00591797 12.98384766 -0.00591797 14.8125 0 C15.90884766 0.00338379 17.00519531 0.00676758 18.13476562 0.01025391 C20.90625 0.3984375 20.90625 0.3984375 22.76220703 1.52880859 C24.4435863 4.27656841 24.29516312 6.50711753 24.3046875 9.7109375 C24.31048828 11.57105469 24.31048828 11.57105469 24.31640625 13.46875 C24.30480469 14.76554688 24.29320312 16.06234375 24.28125 17.3984375 C24.29285156 18.69523437 24.30445313 19.99203125 24.31640625 21.328125 C24.31253906 22.56820312 24.30867188 23.80828125 24.3046875 25.0859375 C24.30130371 26.22417969 24.29791992 27.36242187 24.29443359 28.53515625 C23.90625 31.3984375 23.90625 31.3984375 22.76220703 33.26806641 C20.07560579 34.90434156 17.94353055 34.78721133 14.8125 34.796875 C13.61753906 34.80074219 12.42257813 34.80460937 11.19140625 34.80859375 C9.94230469 34.79699219 8.69320312 34.78539062 7.40625 34.7734375 C6.15714844 34.78503906 4.90804687 34.79664063 3.62109375 34.80859375 C1.82865234 34.80279297 1.82865234 34.80279297 0 34.796875 C-1.09634766 34.79349121 -2.19269531 34.79010742 -3.32226562 34.78662109 C-6.09375 34.3984375 -6.09375 34.3984375 -7.94970703 33.26806641 C-9.6310863 30.52030659 -9.48266312 28.28975747 -9.4921875 25.0859375 C-9.49605469 23.84585938 -9.49992188 22.60578125 -9.50390625 21.328125 C-9.49230469 20.03132813 -9.48070312 18.73453125 -9.46875 17.3984375 C-9.48035156 16.10164062 -9.49195313 14.80484375 -9.50390625 13.46875 C-9.50003906 12.22867188 -9.49617187 10.98859375 -9.4921875 9.7109375 C-9.48880371 8.57269531 -9.48541992 7.43445313 -9.48193359 6.26171875 C-9.09375 3.3984375 -9.09375 3.3984375 -7.94970703 1.52880859 C-5.26310579 -0.10746656 -3.13103055 0.00966367 0 0 Z " fill="#FDFDFD" transform="translate(161.09375,224.6015625)"/>
<path d="M0 0 C1.19496094 -0.00386719 2.38992187 -0.00773438 3.62109375 -0.01171875 C4.87019531 -0.00011719 6.11929688 0.01148438 7.40625 0.0234375 C8.65535156 0.01183594 9.90445313 0.00023437 11.19140625 -0.01171875 C12.98384766 -0.00591797 12.98384766 -0.00591797 14.8125 0 C15.90884766 0.00338379 17.00519531 0.00676758 18.13476562 0.01025391 C20.90625 0.3984375 20.90625 0.3984375 22.76220703 1.52880859 C24.4435863 4.27656841 24.29516312 6.50711753 24.3046875 9.7109375 C24.31048828 11.57105469 24.31048828 11.57105469 24.31640625 13.46875 C24.30480469 14.76554688 24.29320312 16.06234375 24.28125 17.3984375 C24.29285156 18.69523437 24.30445313 19.99203125 24.31640625 21.328125 C24.31253906 22.56820312 24.30867188 23.80828125 24.3046875 25.0859375 C24.30130371 26.22417969 24.29791992 27.36242187 24.29443359 28.53515625 C23.90625 31.3984375 23.90625 31.3984375 22.76220703 33.26806641 C20.07560579 34.90434156 17.94353055 34.78721133 14.8125 34.796875 C13.61753906 34.80074219 12.42257813 34.80460937 11.19140625 34.80859375 C9.94230469 34.79699219 8.69320312 34.78539062 7.40625 34.7734375 C6.15714844 34.78503906 4.90804687 34.79664063 3.62109375 34.80859375 C1.82865234 34.80279297 1.82865234 34.80279297 0 34.796875 C-1.09634766 34.79349121 -2.19269531 34.79010742 -3.32226562 34.78662109 C-6.09375 34.3984375 -6.09375 34.3984375 -7.94970703 33.26806641 C-9.6310863 30.52030659 -9.48266312 28.28975747 -9.4921875 25.0859375 C-9.49605469 23.84585938 -9.49992187 22.60578125 -9.50390625 21.328125 C-9.49230469 20.03132813 -9.48070313 18.73453125 -9.46875 17.3984375 C-9.48035156 16.10164062 -9.49195312 14.80484375 -9.50390625 13.46875 C-9.50003906 12.22867188 -9.49617188 10.98859375 -9.4921875 9.7109375 C-9.48880371 8.57269531 -9.48541992 7.43445313 -9.48193359 6.26171875 C-9.09375 3.3984375 -9.09375 3.3984375 -7.94970703 1.52880859 C-5.26310579 -0.10746656 -3.13103055 0.00966367 0 0 Z " fill="#FDFDFD" transform="translate(30.09375,224.6015625)"/>
<path d="M0 0 C1.14533203 -0.00386719 2.29066406 -0.00773438 3.47070312 -0.01171875 C4.66759766 -0.00011719 5.86449219 0.01148438 7.09765625 0.0234375 C8.29068359 0.01183594 9.48371094 0.00023437 10.71289062 -0.01171875 C11.85951172 -0.00785156 13.00613281 -0.00398437 14.1875 0 C15.76132446 0.00507568 15.76132446 0.00507568 17.36694336 0.01025391 C20.61641019 0.46184487 21.97967933 0.93921921 24.16015625 3.3984375 C24.66186523 6.26171875 24.66186523 6.26171875 24.65625 9.7109375 C24.65689453 10.95101562 24.65753906 12.19109375 24.65820312 13.46875 C24.63822266 14.76554688 24.61824219 16.06234375 24.59765625 17.3984375 C24.60474609 18.69523437 24.61183594 19.99203125 24.61914062 21.328125 C24.55545453 30.7536677 24.55545453 30.7536677 23.01391602 33.26806641 C20.32884069 34.90535059 18.19650386 34.7872142 15.06640625 34.796875 C13.87144531 34.80074219 12.67648438 34.80460937 11.4453125 34.80859375 C10.19621094 34.79699219 8.94710937 34.78539062 7.66015625 34.7734375 C6.41105469 34.78503906 5.16195312 34.79664063 3.875 34.80859375 C2.08255859 34.80279297 2.08255859 34.80279297 0.25390625 34.796875 C-0.84244141 34.79349121 -1.93878906 34.79010742 -3.06835938 34.78662109 C-5.83984375 34.3984375 -5.83984375 34.3984375 -7.69580078 33.26806641 C-9.37718005 30.52030659 -9.22875687 28.28975747 -9.23828125 25.0859375 C-9.24214844 23.84585938 -9.24601562 22.60578125 -9.25 21.328125 C-9.23839844 20.03132813 -9.22679688 18.73453125 -9.21484375 17.3984375 C-9.22644531 16.10164062 -9.23804687 14.80484375 -9.25 13.46875 C-9.24613281 12.22867188 -9.24226563 10.98859375 -9.23828125 9.7109375 C-9.23489746 8.57269531 -9.23151367 7.43445313 -9.22802734 6.26171875 C-8.83984375 3.3984375 -8.83984375 3.3984375 -7.67993164 1.52880859 C-5.06614457 -0.07684805 -3.05544693 0.00986461 0 0 Z " fill="#FDFDFD" transform="translate(29.83984375,181.6015625)"/>
<path d="M0 0 C1.24007812 -0.00386719 2.48015625 -0.00773438 3.7578125 -0.01171875 C5.70300781 0.00568359 5.70300781 0.00568359 7.6875 0.0234375 C8.98429687 0.01183594 10.28109375 0.00023437 11.6171875 -0.01171875 C12.85726562 -0.00785156 14.09734375 -0.00398437 15.375 0 C16.51324219 0.00338379 17.65148437 0.00676758 18.82421875 0.01025391 C21.6875 0.3984375 21.6875 0.3984375 23.55712891 1.55834961 C25.16278555 4.17213668 25.07607289 6.18283432 25.0859375 9.23828125 C25.09173828 10.9562793 25.09173828 10.9562793 25.09765625 12.70898438 C25.08605469 13.90587891 25.07445312 15.10277344 25.0625 16.3359375 C25.07410156 17.52896484 25.08570313 18.72199219 25.09765625 19.95117188 C25.09378906 21.09779297 25.08992188 22.24441406 25.0859375 23.42578125 C25.08255371 24.47499756 25.07916992 25.52421387 25.07568359 26.60522461 C24.62409263 29.85469144 24.14671829 31.21796058 21.6875 33.3984375 C18.82421875 33.90014648 18.82421875 33.90014648 15.375 33.89453125 C14.13492188 33.89517578 12.89484375 33.89582031 11.6171875 33.89648438 C10.32039063 33.87650391 9.02359375 33.85652344 7.6875 33.8359375 C6.39070313 33.84302734 5.09390625 33.85011719 3.7578125 33.85742188 C-5.6677302 33.79373578 -5.6677302 33.79373578 -8.18212891 32.25219727 C-9.81941309 29.56712194 -9.7012767 27.43478511 -9.7109375 24.3046875 C-9.71480469 23.10972656 -9.71867187 21.91476563 -9.72265625 20.68359375 C-9.71105469 19.43449219 -9.69945313 18.18539062 -9.6875 16.8984375 C-9.69910156 15.64933594 -9.71070312 14.40023437 -9.72265625 13.11328125 C-9.71878906 11.91832031 -9.71492188 10.72335938 -9.7109375 9.4921875 C-9.70755371 8.39583984 -9.70416992 7.29949219 -9.70068359 6.16992188 C-9.3125 3.3984375 -9.3125 3.3984375 -8.18212891 1.54248047 C-5.43436909 -0.1388988 -3.20381997 0.00952438 0 0 Z " fill="#F9B329" transform="translate(117.3125,139.6015625)"/>
<path d="M0 0 C1.14533203 -0.00386719 2.29066406 -0.00773438 3.47070312 -0.01171875 C4.66759766 -0.00011719 5.86449219 0.01148438 7.09765625 0.0234375 C8.29068359 0.01183594 9.48371094 0.00023437 10.71289062 -0.01171875 C11.85951172 -0.00785156 13.00613281 -0.00398437 14.1875 0 C15.76132446 0.00507568 15.76132446 0.00507568 17.36694336 0.01025391 C20.61641019 0.46184487 21.97967933 0.93921921 24.16015625 3.3984375 C24.66186523 6.26171875 24.66186523 6.26171875 24.65625 9.7109375 C24.65689453 10.95101562 24.65753906 12.19109375 24.65820312 13.46875 C24.63822266 14.76554688 24.61824219 16.06234375 24.59765625 17.3984375 C24.60474609 18.69523437 24.61183594 19.99203125 24.61914062 21.328125 C24.55545453 30.7536677 24.55545453 30.7536677 23.01391602 33.26806641 C20.32884069 34.90535059 18.19650386 34.7872142 15.06640625 34.796875 C13.87144531 34.80074219 12.67648438 34.80460937 11.4453125 34.80859375 C10.19621094 34.79699219 8.94710937 34.78539062 7.66015625 34.7734375 C6.41105469 34.78503906 5.16195312 34.79664063 3.875 34.80859375 C2.08255859 34.80279297 2.08255859 34.80279297 0.25390625 34.796875 C-0.84244141 34.79349121 -1.93878906 34.79010742 -3.06835938 34.78662109 C-5.83984375 34.3984375 -5.83984375 34.3984375 -7.69580078 33.26806641 C-9.37718005 30.52030659 -9.22875687 28.28975747 -9.23828125 25.0859375 C-9.24214844 23.84585938 -9.24601563 22.60578125 -9.25 21.328125 C-9.23839844 20.03132813 -9.22679687 18.73453125 -9.21484375 17.3984375 C-9.22644531 16.10164062 -9.23804688 14.80484375 -9.25 13.46875 C-9.24613281 12.22867188 -9.24226562 10.98859375 -9.23828125 9.7109375 C-9.23489746 8.57269531 -9.23151367 7.43445313 -9.22802734 6.26171875 C-8.83984375 3.3984375 -8.83984375 3.3984375 -7.67993164 1.52880859 C-5.06614457 -0.07684805 -3.05544693 0.00986461 0 0 Z " fill="#FDFDFD" transform="translate(160.83984375,181.6015625)"/>
<path d="M0 0 C1.24007812 -0.00386719 2.48015625 -0.00773438 3.7578125 -0.01171875 C5.70300781 0.00568359 5.70300781 0.00568359 7.6875 0.0234375 C8.98429687 0.01183594 10.28109375 0.00023437 11.6171875 -0.01171875 C12.85726562 -0.00785156 14.09734375 -0.00398437 15.375 0 C16.51324219 0.00338379 17.65148437 0.00676758 18.82421875 0.01025391 C21.6875 0.3984375 21.6875 0.3984375 23.55712891 1.54248047 C25.19340406 4.22908171 25.07627383 6.36115695 25.0859375 9.4921875 C25.09173828 11.28462891 25.09173828 11.28462891 25.09765625 13.11328125 C25.08605469 14.36238281 25.07445312 15.61148438 25.0625 16.8984375 C25.07410156 18.14753906 25.08570313 19.39664063 25.09765625 20.68359375 C25.09378906 21.87855469 25.08992188 23.07351562 25.0859375 24.3046875 C25.08255371 25.40103516 25.07916992 26.49738281 25.07568359 27.62695312 C24.6875 30.3984375 24.6875 30.3984375 23.55712891 32.25219727 C19.10535796 34.98150839 12.73960841 33.86355837 7.6875 33.8359375 C6.39070313 33.85591797 5.09390625 33.87589844 3.7578125 33.89648438 C2.51773438 33.89583984 1.27765625 33.89519531 0 33.89453125 C-1.70736328 33.89731079 -1.70736328 33.89731079 -3.44921875 33.90014648 C-6.3125 33.3984375 -6.3125 33.3984375 -8.18212891 31.74072266 C-9.59575072 28.81150285 -9.70045542 26.67597541 -9.7109375 23.42578125 C-9.71480469 22.27916016 -9.71867187 21.13253906 -9.72265625 19.95117188 C-9.71105469 18.75814453 -9.69945312 17.56511719 -9.6875 16.3359375 C-9.69910156 15.13904297 -9.71070313 13.94214844 -9.72265625 12.70898438 C-9.71878906 11.56365234 -9.71492188 10.41832031 -9.7109375 9.23828125 C-9.70755371 8.19019287 -9.70416992 7.14210449 -9.70068359 6.06225586 C-9.3125 3.3984375 -9.3125 3.3984375 -8.18212891 1.55834961 C-5.43624987 -0.14518543 -3.2131717 0.00955218 0 0 Z " fill="#FDFDFD" transform="translate(73.3125,139.6015625)"/>
<path d="M0 0 C1.29292969 -0.00257813 2.58585937 -0.00515625 3.91796875 -0.0078125 C4.59263184 -0.00362305 5.26729492 0.00056641 5.96240234 0.00488281 C8.02341157 0.0155843 10.08354919 0.00498557 12.14453125 -0.0078125 C13.43746094 -0.00523437 14.73039062 -0.00265625 16.0625 0 C17.25423828 0.00225586 18.44597656 0.00451172 19.67382812 0.00683594 C22.53125 0.265625 22.53125 0.265625 24.53125 2.265625 C24.99357157 6.89418311 24.85522889 11.55417297 24.84375 16.203125 C24.85986328 17.50443359 24.87597656 18.80574219 24.89257812 20.14648438 C24.89322266 21.39107422 24.89386719 22.63566406 24.89453125 23.91796875 C24.89751221 25.06257568 24.90049316 26.20718262 24.90356445 27.38647461 C24.53125 30.265625 24.53125 30.265625 23.40527344 32.13964844 C20.6406453 33.80073038 18.39097187 33.63725939 15.18359375 33.62890625 C13.93900391 33.62826172 12.69441406 33.62761719 11.41210938 33.62695312 C10.11080078 33.61083984 8.80949219 33.59472656 7.46875 33.578125 C6.16357422 33.58134766 4.85839844 33.58457031 3.51367188 33.58789062 C-6.20188673 33.53248827 -6.20188673 33.53248827 -8.46875 31.265625 C-8.72753906 28.40820312 -8.72753906 28.40820312 -8.734375 24.796875 C-8.73695312 23.50394531 -8.73953125 22.21101563 -8.7421875 20.87890625 C-8.73799805 20.20424316 -8.73380859 19.52958008 -8.72949219 18.83447266 C-8.7187907 16.77346343 -8.72938943 14.71332581 -8.7421875 12.65234375 C-8.73960938 11.35941406 -8.73703125 10.06648437 -8.734375 8.734375 C-8.73211914 7.54263672 -8.72986328 6.35089844 -8.72753906 5.12304688 C-8.21001784 -0.59116854 -4.90645184 0.0092875 0 0 Z " fill="#FEFEFE" transform="translate(29.46875,139.734375)"/>
<path d="M0 0 C1.87365234 -0.02416992 1.87365234 -0.02416992 3.78515625 -0.04882812 C4.98011719 -0.04947266 6.17507812 -0.05011719 7.40625 -0.05078125 C8.50259766 -0.05376221 9.59894531 -0.05674316 10.72851562 -0.05981445 C13.5 0.3125 13.5 0.3125 15.3581543 1.43847656 C17.04150075 4.2012235 16.87165843 6.44354377 16.86328125 9.66015625 C16.86263672 10.90474609 16.86199219 12.14933594 16.86132812 13.43164062 C16.84521484 14.73294922 16.82910156 16.03425781 16.8125 17.375 C16.81572266 18.68017578 16.81894531 19.98535156 16.82226562 21.33007812 C16.76686327 31.04563673 16.76686327 31.04563673 14.5 33.3125 C11.64257812 33.57128906 11.64257812 33.57128906 8.03125 33.578125 C6.73832031 33.58070313 5.44539063 33.58328125 4.11328125 33.5859375 C3.43861816 33.58174805 2.76395508 33.57755859 2.06884766 33.57324219 C0.00783843 33.5625407 -2.05229919 33.57313943 -4.11328125 33.5859375 C-5.40621094 33.58335937 -6.69914062 33.58078125 -8.03125 33.578125 C-9.22298828 33.57586914 -10.41472656 33.57361328 -11.64257812 33.57128906 C-14.5 33.3125 -14.5 33.3125 -16.5 31.3125 C-16.89756452 27.17641547 -16.82906622 23.03497431 -16.81567383 18.88134766 C-16.81251166 16.82010144 -16.83597703 14.7602876 -16.86132812 12.69921875 C-16.86197266 11.40628906 -16.86261719 10.11335938 -16.86328125 8.78125 C-16.86626221 7.58951172 -16.86924316 6.39777344 -16.87231445 5.16992188 C-16.74945068 4.22697266 -16.62658691 3.28402344 -16.5 2.3125 C-11.52977531 -1.00098312 -5.83796407 -0.01506183 0 0 Z " fill="#FEFEFE" transform="translate(37.5,267.6875)"/>
<path d="M0 0 C1.19496094 -0.00386719 2.38992187 -0.00773437 3.62109375 -0.01171875 C4.87019531 -0.00011719 6.11929688 0.01148438 7.40625 0.0234375 C8.65535156 0.01183594 9.90445313 0.00023437 11.19140625 -0.01171875 C12.98384766 -0.00591797 12.98384766 -0.00591797 14.8125 0 C15.90884766 0.00338379 17.00519531 0.00676758 18.13476562 0.01025391 C20.90625 0.3984375 20.90625 0.3984375 22.7644043 1.52661133 C24.44876891 4.28778805 24.27790587 6.53046552 24.26953125 9.74609375 C24.26888672 10.99068359 24.26824219 12.23527344 24.26757812 13.51757812 C24.25146484 14.81888672 24.23535156 16.12019531 24.21875 17.4609375 C24.22197266 18.76611328 24.22519531 20.07128906 24.22851562 21.41601562 C24.17311327 31.13157423 24.17311327 31.13157423 21.90625 33.3984375 C19.04882812 33.65722656 19.04882812 33.65722656 15.4375 33.6640625 C14.14457031 33.66664063 12.85164063 33.66921875 11.51953125 33.671875 C10.84486816 33.66768555 10.17020508 33.66349609 9.47509766 33.65917969 C7.41408843 33.6484782 5.35395081 33.65907693 3.29296875 33.671875 C2.00003906 33.66929687 0.70710937 33.66671875 -0.625 33.6640625 C-1.81673828 33.66180664 -3.00847656 33.65955078 -4.23632812 33.65722656 C-7.09375 33.3984375 -7.09375 33.3984375 -9.09375 31.3984375 C-9.55607157 26.76987939 -9.41772889 22.10988953 -9.40625 17.4609375 C-9.42236328 16.15962891 -9.43847656 14.85832031 -9.45507812 13.51757812 C-9.45572266 12.27298828 -9.45636719 11.02839844 -9.45703125 9.74609375 C-9.46001221 8.60148682 -9.46299316 7.45687988 -9.46606445 6.27758789 C-9.09375 3.3984375 -9.09375 3.3984375 -7.9519043 1.52661133 C-5.26356356 -0.10560816 -3.1306529 0.00966251 0 0 Z " fill="#FEFEFE" transform="translate(161.09375,267.6015625)"/>
<path d="M0 0 C1.29292969 -0.00257813 2.58585938 -0.00515625 3.91796875 -0.0078125 C4.59263184 -0.00362305 5.26729492 0.00056641 5.96240234 0.00488281 C8.02341157 0.0155843 10.08354919 0.00498557 12.14453125 -0.0078125 C13.43746094 -0.00523437 14.73039062 -0.00265625 16.0625 0 C17.25423828 0.00225586 18.44597656 0.00451172 19.67382812 0.00683594 C22.53125 0.265625 22.53125 0.265625 24.53125 2.265625 C24.99357157 6.89418311 24.85522889 11.55417297 24.84375 16.203125 C24.85986328 17.50443359 24.87597656 18.80574219 24.89257812 20.14648438 C24.89322266 21.39107422 24.89386719 22.63566406 24.89453125 23.91796875 C24.89751221 25.06257568 24.90049316 26.20718262 24.90356445 27.38647461 C24.53125 30.265625 24.53125 30.265625 23.3894043 32.13745117 C20.70106356 33.76967066 18.5681529 33.65439999 15.4375 33.6640625 C14.24253906 33.66792969 13.04757813 33.67179687 11.81640625 33.67578125 C10.56730469 33.66417969 9.31820312 33.65257812 8.03125 33.640625 C6.78214844 33.65222656 5.53304687 33.66382813 4.24609375 33.67578125 C2.45365234 33.66998047 2.45365234 33.66998047 0.625 33.6640625 C-0.47134766 33.66067871 -1.56769531 33.65729492 -2.69726562 33.65380859 C-5.46875 33.265625 -5.46875 33.265625 -7.3269043 32.13745117 C-9.01126891 29.37627445 -8.84040587 27.13359698 -8.83203125 23.91796875 C-8.83138672 22.67337891 -8.83074219 21.42878906 -8.83007812 20.14648438 C-8.81396484 18.84517578 -8.79785156 17.54386719 -8.78125 16.203125 C-8.78447266 14.89794922 -8.78769531 13.59277344 -8.79101562 12.24804688 C-8.72126605 0.01650862 -8.72126605 0.01650862 0 0 Z " fill="#FE5B61" transform="translate(160.46875,139.734375)"/>
<path d="M0 0 C49.83 0 99.66 0 151 0 C151.99 3.465 151.99 3.465 153 7 C102.51 7.33 52.02 7.66 0 8 C0 5.36 0 2.72 0 0 Z " fill="#15BDB1" transform="translate(6,316)"/>
<path d="M0 0 C6.93 0 13.86 0 21 0 C19.87010515 5.64947423 18.74011023 11.29462046 17.5625 16.93359375 C17.17964844 18.7734082 17.17964844 18.7734082 16.7890625 20.65039062 C16.26380083 23.1713866 15.73776143 25.69222066 15.2109375 28.21289062 C13.70471278 35.45874441 12.27775132 42.71024079 11 50 C8.89662706 46.84494059 8.48221039 45.04674509 7.8515625 41.36328125 C7.55318481 39.67150757 7.55318481 39.67150757 7.2487793 37.94555664 C7.04293213 36.74664795 6.83708496 35.54773926 6.625 34.3125 C4.98796395 25.07349692 3.16952333 15.99268035 0.69921875 6.94140625 C0 4 0 4 0 0 Z " fill="#FAB52E" transform="translate(273,269)"/>
<path d="M0 0 C0.99 0.495 0.99 0.495 2 1 C2 1.99 2 2.98 2 4 C1.05946777 4.38518799 0.11893555 4.77037598 -0.85009766 5.16723633 C-19.52001533 12.81465257 -38.18168287 20.48150165 -56.82571411 28.1918335 C-62.58968585 30.57486932 -68.3549557 32.95476224 -74.12037659 35.33428955 C-79.17342903 37.41982954 -84.22590767 39.50673907 -89.27734375 41.59619141 C-94.42909011 43.72665072 -99.58309458 45.85156117 -104.73867798 47.97271729 C-106.69369411 48.77809645 -108.64794854 49.58532725 -110.60140991 50.39447021 C-113.29869113 51.51137119 -115.99857996 52.62171598 -118.69921875 53.73046875 C-119.90046387 54.23052177 -119.90046387 54.23052177 -121.12597656 54.74067688 C-126.65773032 57 -126.65773032 57 -130 57 C-129.72737122 55.11953735 -129.72737122 55.11953735 -129 53 C-127.42948914 51.91879272 -127.42948914 51.91879272 -125.36206055 51.08740234 C-124.19116379 50.60334679 -124.19116379 50.60334679 -122.99661255 50.10951233 C-122.1353476 49.77173264 -121.27408264 49.43395294 -120.38671875 49.0859375 C-119.03729691 48.53545998 -119.03729691 48.53545998 -117.66061401 47.97386169 C-114.67517886 46.75986396 -111.68152242 45.56764417 -108.6875 44.375 C-106.59501351 43.5284387 -104.50314248 42.68035467 -102.41186523 41.83081055 C-98.08128147 40.07385563 -93.74756046 38.32499968 -89.41113281 36.58251953 C-80.68174694 33.07177756 -71.97915544 29.4961369 -63.27474976 25.92404175 C-60.56749407 24.81454668 -57.85885741 23.70849989 -55.1496582 22.60375977 C-46.91390555 19.24513763 -38.68330674 15.87563467 -30.47184753 12.45796204 C-26.81248021 10.93495536 -23.15098686 9.41709512 -19.48947144 7.89926147 C-17.75776837 7.17944172 -16.02721853 6.45684078 -14.29788208 5.73135376 C-11.92793251 4.73722901 -9.55431808 3.75241033 -7.1796875 2.76953125 C-6.47677078 2.47159668 -5.77385406 2.17366211 -5.04963684 1.86669922 C-3.38965842 1.18490069 -1.6969223 0.58380843 0 0 Z " fill="#D3D4D7" transform="translate(363,376)"/>
<path d="M0 0 C0 0.66 0 1.32 0 2 C-20.54049102 10.69645906 -41.10851544 19.31846419 -61.7565918 27.7565918 C-70.96997975 31.52256811 -80.17399892 35.30994074 -89.3671875 39.125 C-91.46874655 39.99634621 -93.57030904 40.86768414 -95.671875 41.73901367 C-98.74652289 43.01395781 -101.82073234 44.28990621 -104.89355469 45.56924438 C-107.73780144 46.75333438 -110.58359916 47.93362598 -113.4296875 49.11328125 C-114.26555389 49.4625769 -115.10142029 49.81187256 -115.96261597 50.17175293 C-121.23921158 52.35388256 -126.55905538 54.2679858 -132 56 C-132 54.68 -132 53.36 -132 52 C-113.2810473 44.05905575 -94.54617324 36.16670436 -75.6875 28.5625 C-62.07348782 23.07295516 -48.49418462 17.50471539 -34.9375 11.875 C-34.07023285 11.51487823 -33.2029657 11.15475647 -32.30941772 10.78372192 C-30.62604972 10.08451876 -28.94281337 9.38499852 -27.25971985 8.68513489 C-25.66967462 8.02447841 -24.07910319 7.36508671 -22.48796082 6.70707703 C-19.0750593 5.29340661 -15.67264354 3.86578952 -12.29736328 2.36425781 C-11.23114746 1.89600586 -10.16493164 1.42775391 -9.06640625 0.9453125 C-8.16994385 0.54070801 -7.27348145 0.13610352 -6.34985352 -0.28076172 C-3.75857361 -1.07389529 -2.50974924 -0.92673264 0 0 Z " fill="#D3D4D6" transform="translate(358,358)"/>
<path d="M0 0 C3.79307684 1.72412584 5.51059103 3.13808116 7 7 C8.32127383 18.89146447 8.32127383 18.89146447 5.0625 23.75 C2.09436232 26.98796837 2.09436232 26.98796837 -0.14453125 27.2734375 C-2.84135957 27.37609861 -5.32738441 27.39152967 -8 27 C-11.05908708 24.16474856 -12.85716661 21.56414269 -13.23828125 17.390625 C-13.3911821 10.92050491 -13.47163039 6.85491299 -9 2 C-5.4913604 -0.33909307 -4.12910567 -0.41291057 0 0 Z " fill="#D3D4D7" transform="translate(362,287)"/>
<path d="M0 0 C4.8125662 0.02750038 4.8125662 0.02750038 7.75 2.75 C10.77269798 8.26970936 10.80837138 13.10910065 10.1875 19.375 C9.01233245 22.23279383 7.37986891 24.18263109 5.1875 26.375 C3.0078125 26.578125 3.0078125 26.578125 0.3125 26.625 C-0.57179688 26.65078125 -1.45609375 26.6765625 -2.3671875 26.703125 C-4.8125 26.375 -4.8125 26.375 -6.5078125 25.109375 C-10.64217325 19.61339843 -10.57240125 14.07107097 -9.8125 7.375 C-7.68680703 2.24832871 -5.42507206 0.20651812 0 0 Z " fill="#D3D4D7" transform="translate(330.8125,263.625)"/>
<path d="M0 0 C3.17218843 3.62535821 4.42902597 7.51150278 6 12 C8.70299896 11.53662875 10.98936533 11.0047856 13.5 9.875 C16.43439472 8.84796185 18.05158101 9.15759457 21 10 C21.495 11.98 21.495 11.98 22 14 C18.04 15.65 14.08 17.3 10 19 C10.69659113 22.48295566 11.4244616 25.49734467 12.5625 28.8125 C12.83191406 29.60269531 13.10132813 30.39289063 13.37890625 31.20703125 C13.58386719 31.79871094 13.78882813 32.39039063 14 33 C12.02 33.66 10.04 34.32 8 35 C5.525 29.06 5.525 29.06 3 23 C-0.48295566 23.69659113 -3.49734467 24.4244616 -6.8125 25.5625 C-7.60269531 25.83191406 -8.39289063 26.10132813 -9.20703125 26.37890625 C-9.79871094 26.58386719 -10.39039063 26.78882813 -11 27 C-11.33 25.02 -11.66 23.04 -12 21 C-10.730447 20.35165346 -9.45930294 19.70642185 -8.1875 19.0625 C-7.47980469 18.70285156 -6.77210938 18.34320313 -6.04296875 17.97265625 C-4 17 -4 17 -1 16 C-1.46084924 13.31171277 -2.01478677 10.96433779 -3.0625 8.4375 C-4 6 -4 6 -4 2 C-2.68 1.34 -1.36 0.68 0 0 Z " fill="#1FC0B4" transform="translate(268,338)"/>
<path d="M0 0 C2.31 0 4.62 0 7 0 C7 17.16 7 34.32 7 52 C4.69 52.99 2.38 53.98 0 55 C0 36.85 0 18.7 0 0 Z " fill="#15BDB1" transform="translate(219,62)"/>
<path d="M0 0 C-1 3 -1 3 -3.859375 4.44775391 C-5.15172959 4.96871404 -6.44909442 5.47733859 -7.75 5.9765625 C-8.45877792 6.25918442 -9.16755585 6.54180634 -9.89781189 6.83299255 C-11.44581654 7.44893173 -12.9958426 8.05980853 -14.5475769 8.66629028 C-17.87812431 9.96827939 -21.19885967 11.29444053 -24.52024841 12.61958313 C-26.27836754 13.32088304 -28.03697431 14.02096151 -29.79603577 14.71989441 C-38.99395461 18.37911097 -48.14090706 22.15866864 -57.28149414 25.95843506 C-59.87514235 27.03657878 -62.46971519 28.11247028 -65.06445312 29.18798828 C-66.69799238 29.86602857 -68.33145782 30.5442467 -69.96484375 31.22265625 C-70.74161469 31.54500244 -71.51838562 31.86734863 -72.31869507 32.19946289 C-75.95608362 33.71364796 -79.58319043 35.24618874 -83.19189453 36.82763672 C-83.83904922 37.11029892 -84.48620392 37.39296112 -85.15296936 37.68418884 C-86.87578404 38.43989353 -88.59537685 39.20293155 -90.31469727 39.96655273 C-93 41 -93 41 -96 41 C-96 39.68 -96 38.36 -96 37 C-94.90800293 36.55422607 -93.81600586 36.10845215 -92.69091797 35.64916992 C-87.41847448 33.49643181 -82.14663511 31.34221682 -76.875 29.1875 C-75.90636017 28.79160675 -74.93772034 28.3957135 -73.93972778 27.98782349 C-56.07113319 20.68276849 -38.22555721 13.32274182 -20.39208984 5.93237305 C-19.44808823 5.54160583 -18.50408661 5.15083862 -17.53147888 4.74822998 C-15.76375153 4.01648059 -13.99636651 3.28390347 -12.22938538 2.550354 C-11.05900978 2.06607941 -11.05900978 2.06607941 -9.86499023 1.57202148 C-9.18718002 1.29100082 -8.50936981 1.00998016 -7.8110199 0.72044373 C-3.26456217 -1.08818739 -3.26456217 -1.08818739 0 0 Z " fill="#D3D4D7" transform="translate(336,412)"/>
<path d="M0 0 C2.9375 1.6875 2.9375 1.6875 5 5 C5.93873732 10.96060038 6.1786136 16.10707513 2.9375 21.3125 C-0.79509713 23.45675792 -2.75999003 23.75714464 -7 23 C-9.9375 21.3125 -9.9375 21.3125 -12 18 C-12.93873732 12.03939962 -13.1786136 6.89292487 -9.9375 1.6875 C-6.20490287 -0.45675792 -4.24000997 -0.75714464 0 0 Z " fill="#FBFBFB" transform="translate(188,76)"/>
<path d="M0 0 C2.54878922 1.17244304 4.06297378 2.06297378 6 4 C6 7.3 6 10.6 6 14 C-0.93 14 -7.86 14 -15 14 C-15 4 -15 4 -13.6875 1.375 C-9.28075661 -0.8796129 -4.84109324 -0.61679114 0 0 Z " fill="#107A88" transform="translate(288,28)"/>
<path d="M0 0 C0.99 0.33 1.98 0.66 3 1 C1.66558629 3.82749964 0.16230649 6.29610568 -1.6953125 8.80859375 C-2.51020142 9.91388428 -2.51020142 9.91388428 -3.34155273 11.04150391 C-3.93009033 11.83218262 -4.51862793 12.62286133 -5.125 13.4375 C-5.73738525 14.26427246 -6.34977051 15.09104492 -6.98071289 15.94287109 C-16.49387363 28.74937178 -26.18572653 41.423036 -36 54 C-36.66 53.67 -37.32 53.34 -38 53 C-36.69951624 49.38357539 -35.15511099 46.61329466 -32.796875 43.5859375 C-32.15282715 42.75151123 -31.5087793 41.91708496 -30.84521484 41.05737305 C-30.15379395 40.17218994 -29.46237305 39.28700684 -28.75 38.375 C-27.29818573 36.49448745 -25.84769233 34.6129545 -24.3984375 32.73046875 C-23.66463867 31.77833496 -22.93083984 30.82620117 -22.17480469 29.84521484 C-18.27759576 24.74664358 -14.48746489 19.57019831 -10.69433594 14.39404297 C-7.16077442 9.57213678 -3.59728277 4.77458998 0 0 Z " fill="#D3D4D7" transform="translate(363,262)"/>
<path d="M0 0 C2.79244362 1.92621621 4.52146802 3.94700076 6 7 C6.64028001 10.84795732 6.76672799 14.46654401 5 18 C2.19078661 16.69771056 -0.06973828 15.26363892 -2.41796875 13.25 C-3.03220703 12.7240625 -3.64644531 12.198125 -4.27929688 11.65625 C-4.90900391 11.1096875 -5.53871094 10.563125 -6.1875 10 C-6.82880859 9.4534375 -7.47011719 8.906875 -8.13085938 8.34375 C-12.86983998 4.26032004 -12.86983998 4.26032004 -14 2 C-9.50018659 -1.62888178 -5.33468702 -1.81566541 0 0 Z " fill="#60DCD0" transform="translate(380,166)"/>
<path d="M0 0 C8.91 0 17.82 0 27 0 C27 2.31 27 4.62 27 7 C18.09 7 9.18 7 0 7 C0 4.69 0 2.38 0 0 Z " fill="#20C0B4" transform="translate(334,226)"/>
<path d="M0 0 C0.99 0 1.98 0 3 0 C2.67 3.63 2.34 7.26 2 11 C4.97 11.99 7.94 12.98 11 14 C10.67 14.99 10.34 15.98 10 17 C2.25 16.125 2.25 16.125 0 15 C-0.10957031 15.63808594 -0.21914063 16.27617187 -0.33203125 16.93359375 C-0.49058594 17.75988281 -0.64914062 18.58617187 -0.8125 19.4375 C-0.96332031 20.26121094 -1.11414063 21.08492188 -1.26953125 21.93359375 C-1.51058594 22.61550781 -1.75164062 23.29742187 -2 24 C-2.99 24.33 -3.98 24.66 -5 25 C-5.66 24.67 -6.32 24.34 -7 24 C-5.515 18.555 -5.515 18.555 -4 13 C-5.27875 12.855625 -6.5575 12.71125 -7.875 12.5625 C-10.25692894 12.29357254 -11.84452691 12.07773654 -14 11 C-13.34 9.68 -12.68 8.36 -12 7 C-9.03 7.33 -6.06 7.66 -3 8 C-2.01 5.36 -1.02 2.72 0 0 Z " fill="#D3D4D7" transform="translate(403,327)"/>
<path d="M0 0 C4.32219959 0.4916246 6.56404282 3.09580343 9.625 6 C13.02862436 9.38266503 13.02862436 9.38266503 17 12 C17 12.99 17 13.98 17 15 C13.3078813 17.46141247 10.28645195 17.68650207 6 17 C2.45360649 14.84132569 0.50438646 12.84454316 -1 9 C-0.9765625 6.640625 -0.9765625 6.640625 -0.625 4.25 C-0.51414062 3.45078125 -0.40328125 2.6515625 -0.2890625 1.828125 C-0.19367188 1.22484375 -0.09828125 0.6215625 0 0 Z " fill="#FEFBF5" transform="translate(337,152)"/>
<path d="M0 0 C2.4375 0.8125 2.4375 0.8125 4.4375 2.8125 C4.703125 6 4.703125 6 4.6875 9.8125 C4.69265625 11.070625 4.6978125 12.32875 4.703125 13.625 C4.4375 16.8125 4.4375 16.8125 2.4375 18.8125 C-0.5625 19.0625 -0.5625 19.0625 -3.5625 18.8125 C-6.42586371 15.94913629 -5.86266187 13.86021654 -5.875 9.875 C-5.89175781 8.62847656 -5.90851563 7.38195312 -5.92578125 6.09765625 C-5.5625 2.8125 -5.5625 2.8125 -4.203125 0.859375 C-2.5625 -0.1875 -2.5625 -0.1875 0 0 Z " fill="#FDFDFE" transform="translate(359.5625,291.1875)"/>
<path d="M0 0 C3 0.25 3 0.25 5 2.25 C5.30078125 5.40234375 5.30078125 5.40234375 5.3125 9.1875 C5.32925781 10.43402344 5.34601563 11.68054688 5.36328125 12.96484375 C5 16.25 5 16.25 3.640625 18.203125 C2 19.25 2 19.25 -0.5625 19.0625 C-3 18.25 -3 18.25 -5 16.25 C-5.265625 13.0625 -5.265625 13.0625 -5.25 9.25 C-5.25515625 7.991875 -5.2603125 6.73375 -5.265625 5.4375 C-4.91266073 1.20192875 -4.25812592 0.35484383 0 0 Z " fill="#FDFEFE" transform="translate(331,267.75)"/>
<path d="M0 0 C1.6328125 1.1796875 1.6328125 1.1796875 3 3 C3.3984375 5.59375 3.3984375 5.59375 3.375 8.5 C3.38273438 9.4590625 3.39046875 10.418125 3.3984375 11.40625 C3 14 3 14 1.6328125 15.8203125 C-0.70189825 17.50711309 -2.18869079 17.42169638 -5 17 C-6.6328125 15.8203125 -6.6328125 15.8203125 -8 14 C-8.3984375 11.40625 -8.3984375 11.40625 -8.375 8.5 C-8.38273438 7.5409375 -8.39046875 6.581875 -8.3984375 5.59375 C-8 3 -8 3 -6.6328125 1.1796875 C-4.29810175 -0.50711309 -2.81130921 -0.42169638 0 0 Z " fill="#C9CBCD" transform="translate(187,79)"/>
<path d="M0 0 C6.93 0 13.86 0 21 0 C21 1.98 21 3.96 21 6 C14.07 6 7.14 6 0 6 C0 4.02 0 2.04 0 0 Z " fill="#FFFFFF" transform="translate(273,43)"/>
<path d="M0 0 C2.31 0 4.62 0 7 0 C6.41523944 7.09406894 5.36766005 14.01563899 4 21 C-0.00010667 14.99983999 -0.31474226 7.08170088 0 0 Z " fill="#1A7D88" transform="translate(280,298)"/>
<path d="M0 0 C0.86580287 1.93232821 1.71729941 3.87107194 2.5625 5.8125 C3.27599609 7.43091797 3.27599609 7.43091797 4.00390625 9.08203125 C5 12 5 12 4 15 C0.04 11.37 -3.92 7.74 -8 4 C-3 0 -3 0 0 0 Z " fill="#F7F9F2" transform="translate(374,165)"/>
</svg>
